<svg xmlns="http://www.w3.org/2000/svg" viewBox="0 0 20 20" role="img" aria-label="Mapped Places">
  <!-- Monochrome (menu d'administration WordPress) : carte pliée + épingle, en currentColor -->
  <path fill="currentColor" fill-rule="evenodd" d="M1.5 5.2 6 3.6l4 1.6 4-1.6 4.5 1.6v10.6L14 17.4l-4-1.6-4 1.6-4.5-1.6V5.2Zm1.6 1.1v8.2l2.1.8V7.1l-2.1-.8Zm12.7.8v8.2l2.1-.8V6.3l-2.1.8Z"/>
  <path fill="currentColor" d="M10 2.2c-2.4 0-4.3 1.9-4.3 4.3 0 3.3 4.3 7.2 4.3 7.2s4.3-3.9 4.3-7.2c0-2.4-1.9-4.3-4.3-4.3Zm0 6a1.7 1.7 0 1 1 0-3.4 1.7 1.7 0 0 1 0 3.4Z"/>
</svg>
